<svg xmlns="http://www.w3.org/2000/svg">

<symbol id="logo" viewBox="0 0 24 24" stroke-linejoin="round" stroke-linecap="round" stroke="none">
<path d="M6 17.51v-2.73a4.61 4.61 0 0 1 3.58-3.67c1.8-.45 5.08-.84 5.06-3.26-.03-3.14-5.6-3.07-5.74-.42-.02.3-.17.44-.47.43L6 7.82V6.4c1.1-3.37 4.07-3.7 7.36-3.23 3.33.47 4.28 2.46 4.17 5.61-.08 2.38-.09 4.85-.02 7.43.06 2.53-1.16 4.04-3.65 4.56-2.92.6-7 .21-7.86-3.26Zm6.43-4.38c-.9.34-2.02.43-2.73 1.1-1.05 1.02-1.13 2.24-.23 3.69a.95.95 0 0 0 .72.44c.77.08 1.65.1 2.64.09 2.45-.05 1.9-4.28 1.84-5.84-.02-.31-.16-.4-.44-.26-.58.28-1.18.54-1.8.78Z"/>
</symbol>

<svg id="settings" viewBox="0 0 24 24" fill="none" stroke-linecap="round" stroke-linejoin="round">
<path d="M12.22 2h-.44a2 2 0 0 0-2 2v.18a2 2 0 0 1-1 1.73l-.43.25a2 2 0 0 1-2 0l-.15-.08a2 2 0 0 0-2.73.73l-.22.38a2 2 0 0 0 .73 2.73l.15.1a2 2 0 0 1 1 1.72v.51a2 2 0 0 1-1 1.74l-.15.09a2 2 0 0 0-.73 2.73l.22.38a2 2 0 0 0 2.73.73l.15-.08a2 2 0 0 1 2 0l.43.25a2 2 0 0 1 1 1.73V20a2 2 0 0 0 2 2h.44a2 2 0 0 0 2-2v-.18a2 2 0 0 1 1-1.73l.43-.25a2 2 0 0 1 2 0l.15.08a2 2 0 0 0 2.73-.73l.22-.39a2 2 0 0 0-.73-2.73l-.15-.08a2 2 0 0 1-1-1.74v-.5a2 2 0 0 1 1-1.74l.15-.09a2 2 0 0 0 .73-2.73l-.22-.38a2 2 0 0 0-2.73-.73l-.15.08a2 2 0 0 1-2 0l-.43-.25a2 2 0 0 1-1-1.73V4a2 2 0 0 0-2-2z"/>
<circle cx="12" cy="12" r="3"/>
</svg>

<symbol id="arrow-left" viewBox="0 0 24 24" stroke-linejoin="round" stroke-linecap="round">
<path d="M12 19L5 12M5 12L12 5M5 12H19" />
</symbol>
<symbol id="check" viewBox="0 0 24 24" stroke-linejoin="round" stroke-linecap="round">
<path d="M20 6L9 17L4 12" />

</symbol>
<symbol id="chevron-down" viewBox="0 0 24 24" stroke-linejoin="round" stroke-linecap="round">
<path d="M6 9L12 15L18 9" />
</symbol>
<symbol id="chevron-right" viewBox="0 0 24 24" stroke-linejoin="round" stroke-linecap="round">
<path d="M9 18L15 12L9 6" />

</symbol>
<symbol id="chevron-up" viewBox="0 0 24 24" stroke-linejoin="round" stroke-linecap="round">
<path d="M18 15L12 9L6 15" />

</symbol>
<symbol id="exit" viewBox="0 0 24 24" stroke-linejoin="round" stroke-linecap="round">
<path d="M18 6L6 18M6 6L18 18" />

</symbol>
<symbol id="eye" viewBox="0 0 24 24" stroke-linejoin="round" stroke-linecap="round" fill="none">
<path d="M2 12C2 12 5 5 12 5C19 5 22 12 22 12C22 12 19 19 12 19C5 19 2 12 2 12Z" />
<path d="M12 15C13.6569 15 15 13.6569 15 12C15 10.3431 13.6569 9 12 9C10.3431 9 9 10.3431 9 12C9 13.6569 10.3431 15 12 15Z" />

</symbol>
<symbol id="filter" viewBox="0 0 24 24" stroke-linejoin="round" stroke-linecap="round" fill="none">
<path d="M22 3H2L10 12.46V19L14 21V12.46L22 3Z" />

</symbol>
<symbol id="log-out" viewBox="0 0 24 24" stroke-linejoin="round" stroke-linecap="round">
<path d="M9 21H5C4.46957 21 3.96086 20.7893 3.58579 20.4142C3.21071 20.0391 3 19.5304 3 19V5C3 4.46957 3.21071 3.96086 3.58579 3.58579C3.96086 3.21071 4.46957 3 5 3H9M16 17L21 12M21 12L16 7M21 12H9" />

</symbol>
<symbol id="message" viewBox="0 0 24 24" stroke-linejoin="round" stroke-linecap="round">
<path d="M3 21L4.9 15.3C3.99713 13.4948 3.76612 11.4272 4.2483 9.46722C4.73049 7.50725 5.8944 5.78282 7.53176 4.60254C9.16911 3.42226 11.173 2.86316 13.1849 3.02528C15.1968 3.1874 17.0854 4.06017 18.5126 5.48741C19.9398 6.91464 20.8126 8.80319 20.9747 10.8151C21.1369 12.827 20.5777 14.8309 19.3975 16.4683C18.2172 18.1056 16.4928 19.2695 14.5328 19.7517C12.5728 20.2339 10.5052 20.0029 8.7 19.1L3 21Z" />

</symbol>
<symbol id="moon" viewBox="0 0 24 24" stroke-linejoin="round" stroke-linecap="round" fill="none">
<path d="M12 3C10.8065 4.19347 10.136 5.81217 10.136 7.5C10.136 9.18783 10.8065 10.8065 12 12C13.1935 13.1935 14.8122 13.864 16.5 13.864C18.1878 13.864 19.8065 13.1935 21 12C21 13.78 20.4722 15.5201 19.4832 17.0001C18.4943 18.4802 17.0887 19.6337 15.4442 20.3149C13.7996 20.9961 11.99 21.1743 10.2442 20.8271C8.49836 20.4798 6.89472 19.6226 5.63604 18.364C4.37737 17.1053 3.5202 15.5016 3.17294 13.7558C2.82567 12.01 3.0039 10.2004 3.68509 8.55585C4.36628 6.91131 5.51983 5.50571 6.99987 4.51677C8.47991 3.52784 10.22 3 12 3Z" />

</symbol>
<symbol id="more-vertical" viewBox="0 0 24 24" stroke-linejoin="round" stroke-linecap="round">
<path d="M12 13C12.5523 13 13 12.5523 13 12C13 11.4477 12.5523 11 12 11C11.4477 11 11 11.4477 11 12C11 12.5523 11.4477 13 12 13Z" />
<path d="M19 13C19.5523 13 20 12.5523 20 12C20 11.4477 19.5523 11 19 11C18.4477 11 18 11.4477 18 12C18 12.5523 18.4477 13 19 13Z" />
<path d="M5 13C5.55228 13 6 12.5523 6 12C6 11.4477 5.55228 11 5 11C4.44772 11 4 11.4477 4 12C4 12.5523 4.44772 13 5 13Z" />

</symbol>
<symbol id="pencil" viewBox="0 0 24 24" stroke-linejoin="round" stroke-linecap="round">
<path d="M15 5L19 9M17 3C17.2547 2.69904 17.5697 2.45406 17.925 2.28069C18.2803 2.10731 18.6681 2.00934 19.0636 1.99302C19.4592 1.9767 19.8538 2.04238 20.2224 2.18589C20.5909 2.3294 20.9254 2.54758 21.2043 2.82652C21.4833 3.10547 21.7006 3.43906 21.8425 3.80604C21.9845 4.17302 22.0478 4.56534 22.0286 4.95798C22.0094 5.35063 21.908 5.73499 21.7309 6.08657C21.5538 6.43815 21.3049 6.74924 21 7L7.5 20.5L2 22L3.5 16.5L17 3Z" />

</symbol>
<symbol id="plus" viewBox="0 0 24 24" stroke-linejoin="round" stroke-linecap="round">
<path d="M5 12H19M12 5V19" />

</symbol>
<symbol id="reload" viewBox="0 0 24 24" stroke-linejoin="round" stroke-linecap="round">
<path d="M3 12C3 13.78 3.52784 15.5201 4.51677 17.0001C5.50571 18.4802 6.91131 19.6337 8.55585 20.3149C10.2004 20.9961 12.01 21.1743 13.7558 20.8271C15.5016 20.4798 17.1053 19.6226 18.364 18.364C19.6226 17.1053 20.4798 15.5016 20.8271 13.7558C21.1743 12.01 20.9961 10.2004 20.3149 8.55585C19.6337 6.91131 18.4802 5.50571 17.0001 4.51677C15.5201 3.52784 13.78 3 12 3C9.48395 3.00947 7.06897 3.99122 5.26 5.74L3 8M3 8V3M3 8H8" />

</symbol>
<symbol id="search" viewBox="0 0 24 24" stroke-linejoin="round" stroke-linecap="round">
<path d="M21 21L16.7 16.7M19 11C19 15.4183 15.4183 19 11 19C6.58172 19 3 15.4183 3 11C3 6.58172 6.58172 3 11 3C15.4183 3 19 6.58172 19 11Z" />

</symbol>
<symbol id="user" viewBox="0 0 24 24" stroke-linejoin="round" stroke-linecap="round" fill="none">
<path d="M18 20C18 18.4087 17.3679 16.8826 16.2426 15.7574C15.1174 14.6321 13.5913 14 12 14M12 14C10.4087 14 8.88258 14.6321 7.75736 15.7574C6.63214 16.8826 6 18.4087 6 20M12 14C14.2091 14 16 12.2091 16 10C16 7.79086 14.2091 6 12 6C9.79086 6 8 7.79086 8 10C8 12.2091 9.79086 14 12 14ZM22 12C22 17.5228 17.5228 22 12 22C6.47715 22 2 17.5228 2 12C2 6.47715 6.47715 2 12 2C17.5228 2 22 6.47715 22 12Z" />

</symbol>
</svg>