<svg width="18" height="27" viewBox="0 0 18 27" fill="none" xmlns="http://www.w3.org/2000/svg">
<path d="M0 21.7402V17.6502C0.7 14.7169 2.48333 12.8902 5.35 12.1702C8.05 11.4902 12.95 10.9102 12.92 7.30019C12.88 2.60019 4.54 2.70019 4.33 6.66019C4.31 7.10019 4.07667 7.31686 3.63 7.31019L0 7.25019V5.13019C1.65 0.0801897 6.08 -0.39981 11 0.29019C15.98 1.00019 17.4 3.98019 17.24 8.69019C17.12 12.2369 17.11 15.9402 17.21 19.8002C17.3033 23.5735 15.4833 25.8435 11.75 26.6102C7.39 27.5102 1.28 26.9302 0 21.7402ZM9.62 15.1902C8.28 15.7002 6.6 15.8302 5.54 16.8402C3.96 18.3535 3.84333 20.1902 5.19 22.3502C5.30515 22.5337 5.46141 22.6886 5.64685 22.803C5.8323 22.9174 6.04202 22.9883 6.26 23.0102C7.41333 23.1235 8.73 23.1669 10.21 23.1402C13.88 23.0702 13.06 16.7402 12.96 14.4102C12.94 13.9435 12.7233 13.8135 12.31 14.0202C11.4433 14.4402 10.5467 14.8302 9.62 15.1902Z" fill="#005FDB"/>
</svg>
